<svg version="1.1" id="Layer_1" xmlns="http://www.w3.org/2000/svg" xmlns:xlink="http://www.w3.org/1999/xlink" x="0px" y="0px"
	 width="100%" viewBox="0 0 500 500" enable-background="new 0 0 500 500" xml:space="preserve">
<path fill="#000000" opacity="1.000000" stroke="none" 
	d="
M284.000000,501.000000 
	C189.333359,501.000000 95.166710,501.000000 1.000051,501.000000 
	C1.000034,334.333405 1.000034,167.666794 1.000017,1.000140 
	C167.666565,1.000093 334.333130,1.000093 500.999756,1.000047 
	C500.999847,167.666519 500.999847,334.333038 500.999939,500.999786 
	C428.833344,501.000000 356.666656,501.000000 284.000000,501.000000 
M46.030384,164.486740 
	C46.030384,164.486740 46.139919,164.972977 45.973949,165.823853 
	C46.028267,167.552505 46.082588,169.281158 46.005558,171.932617 
	C46.049343,176.618408 46.093128,181.304214 45.973675,186.880936 
	C46.029091,189.594955 46.084503,192.308990 46.009975,195.937912 
	C46.089722,199.937866 46.169464,203.937820 46.185905,208.874969 
	C46.208618,212.931961 46.231327,216.988937 46.018467,221.864548 
	C46.058956,223.565308 46.099445,225.266083 45.973915,227.880402 
	C46.029255,231.594604 46.084599,235.308823 46.009892,239.949554 
	C46.089657,248.278900 46.169418,256.608246 46.196239,265.808594 
	C46.214561,267.553436 46.232883,269.298309 46.013744,271.945831 
	C46.054779,277.287048 46.095814,282.628296 45.973679,288.862335 
	C46.028133,291.578156 46.082592,294.293945 46.005646,297.937653 
	C46.013435,322.086823 46.011402,346.236023 46.042202,370.385162 
	C46.045807,373.210205 46.388973,375.501678 49.554821,377.219849 
	C61.206539,383.543457 72.621895,390.303833 84.104660,396.937103 
	C94.992996,403.227020 105.818954,409.625641 116.738922,415.859833 
	C125.385017,420.795929 134.132370,425.554596 142.833328,430.394623 
	C143.640015,430.843353 144.436417,431.310577 145.237564,431.769226 
	C145.627899,430.912262 146.362915,430.053040 146.357315,429.198669 
	C146.260254,414.425659 146.170166,399.650543 145.765350,384.884460 
	C145.720535,383.250183 144.133545,381.049438 142.637924,380.157288 
	C126.762543,370.687744 110.854324,361.262665 94.718971,352.248047 
	C91.284775,350.329376 90.739464,348.168488 90.751167,344.819031 
	C90.818573,325.537109 90.740913,306.254669 90.964363,286.520905 
	C90.921730,286.353943 90.879089,286.186951 90.992638,285.091644 
	C90.996643,276.285767 91.015480,267.479828 91.001991,258.673981 
	C90.952644,226.445374 90.892517,194.216782 90.966171,161.489151 
	C90.882713,161.338898 90.799248,161.188660 90.754196,160.251755 
	C91.754524,154.155273 97.857597,154.135574 101.636536,151.780930 
	C113.648438,144.296356 126.310730,137.865921 138.552017,130.736801 
	C158.124222,119.338280 177.518799,107.635117 197.066269,96.193680 
	C213.972107,86.298431 230.964828,76.550758 247.966385,66.820412 
	C252.640793,64.145142 256.902191,61.309467 262.980621,65.036598 
	C278.427429,74.508125 294.368622,83.170288 309.975861,92.386810 
	C312.077850,93.628105 314.544037,96.033821 314.847839,98.182251 
	C315.562988,103.240318 315.169098,108.470924 315.051758,113.627808 
	C314.780579,125.547707 314.209167,137.464218 314.145905,149.384171 
	C314.104797,157.134720 314.867249,164.886490 315.016235,172.642593 
	C315.075378,175.721146 314.144531,178.817596 314.192474,181.897690 
	C314.336456,191.155457 315.332764,200.441422 314.831573,209.653000 
	C314.505676,215.642212 316.795197,214.164841 319.750122,212.508774 
	C331.441406,205.956375 343.135345,199.404663 354.715088,192.658340 
	C370.443390,183.495071 386.079224,174.172729 401.719147,164.858871 
	C403.248688,163.948013 404.529266,162.619034 405.925385,161.484146 
	C404.478485,160.383179 403.126740,159.119919 401.569672,158.206802 
	C388.476807,150.528671 375.400543,142.818466 362.178680,135.367386 
	C359.710144,133.976273 358.792694,132.663116 358.814301,129.809952 
	C358.956757,110.985535 358.811951,92.158974 358.944824,73.334412 
	C358.965851,70.353371 358.236267,68.606415 355.491669,67.097252 
	C341.079590,59.172508 326.729401,51.129601 312.483643,42.909439 
	C294.903900,32.765484 277.483643,22.344788 259.873230,12.255257 
	C258.415466,11.420078 255.696671,11.542527 254.136917,12.340426 
	C246.709061,16.140167 239.412186,20.211472 232.192139,24.398989 
	C211.352066,36.485939 190.607224,48.737213 169.755554,60.803970 
	C154.320633,69.736069 138.738510,78.413589 123.292053,87.325996 
	C105.645058,97.508110 88.073395,107.820854 70.473671,118.084854 
	C62.982491,122.453636 55.503178,126.842766 47.213665,131.263794 
	C46.858799,132.489365 46.203091,133.713379 46.196720,134.940750 
	C46.146378,144.640778 46.219826,154.341431 46.030384,164.486740 
M252.999115,313.349731 
	C252.999084,312.906799 252.999054,312.463837 253.708008,311.847565 
	C291.422150,290.156616 329.136322,268.465668 367.043823,246.663513 
	C367.461884,250.070328 367.724335,252.643677 368.101105,255.200165 
	C369.352570,263.690735 366.808289,270.135132 358.647644,273.995575 
	C354.189789,276.104370 349.961060,278.707611 345.675262,281.168457 
	C319.067627,296.446167 292.435150,311.681824 265.945892,327.162354 
	C263.815704,328.407257 262.109833,331.193420 261.302551,333.626923 
	C260.666016,335.545715 261.963593,338.022736 261.977570,340.254486 
	C262.060028,353.412292 262.018127,366.570923 262.018127,380.743073 
	C297.169952,360.525330 332.222351,340.364777 367.932434,319.825928 
	C367.932434,336.806580 367.932434,352.289825 367.932434,368.262848 
	C370.446350,367.489227 372.323669,367.278381 373.802490,366.398163 
	C385.157227,359.639740 396.378082,352.655060 407.774170,345.968475 
	C410.749847,344.222473 412.004059,342.393494 411.993744,338.750000 
	C411.842194,285.265656 411.880219,231.780777 411.882721,178.296021 
	C411.882782,176.968185 412.082977,175.636246 412.023590,174.313690 
	C411.966766,173.048584 411.692902,171.793228 411.514435,170.533600 
	C410.423431,170.835373 409.210266,170.924805 408.260162,171.471451 
	C397.790070,177.495560 387.363281,183.594925 376.920105,189.665894 
	C353.773926,203.121552 330.657867,216.629425 307.467621,230.008682 
	C286.588654,242.054474 265.629456,253.961212 244.701187,265.921539 
	C232.511490,272.887817 220.313049,279.838898 207.995056,286.867279 
	C207.995056,324.333618 208.037354,361.756317 207.930023,399.178619 
	C207.919220,402.946198 208.841415,405.775665 212.203949,407.645477 
	C221.335556,412.723541 230.432434,417.864410 239.584427,422.905304 
	C243.722824,425.184662 247.959244,427.286011 252.568130,429.685150 
	C252.568130,415.181854 252.632004,401.892914 252.541458,388.605011 
	C252.495468,381.856903 251.965271,375.108795 252.025986,368.364075 
	C252.098755,360.281281 252.568481,352.202087 253.046951,343.194336 
	C252.913666,339.770966 252.780380,336.347565 252.747528,332.002075 
	C252.759094,325.993652 252.770645,319.985229 252.999115,313.349731 
M467.930969,217.450653 
	C467.629974,217.270218 467.329010,217.089798 466.981995,215.985870 
	C467.322815,201.739975 467.797272,187.495407 467.938965,173.247528 
	C467.996002,167.511078 467.205353,161.771210 467.018768,156.025803 
	C466.854828,150.978348 467.130920,145.916367 466.957458,140.869568 
	C466.828186,137.108963 468.417206,132.714661 464.020264,130.151794 
	C451.899017,123.086685 439.738312,116.089233 427.597198,109.058220 
	C413.062958,100.641350 398.543213,92.199409 383.995178,83.806450 
	C379.006897,80.928635 373.952301,78.165718 368.092499,74.882141 
	C368.092499,92.138496 368.039703,107.776985 368.182770,123.413689 
	C368.195587,124.814034 369.108185,126.793022 370.232666,127.496292 
	C375.533356,130.811356 381.075409,133.737640 386.490936,136.872482 
	C397.710449,143.367050 408.850739,150.001343 420.151825,156.349915 
	C422.549622,157.696915 423.128235,159.019669 423.112366,161.726700 
	C422.957825,188.026062 423.036102,214.326736 423.033752,240.627045 
	C423.031616,264.546478 422.929169,288.466278 423.042145,312.385101 
	C423.084991,321.447327 423.977692,330.515930 423.766632,339.564911 
	C423.645416,344.763763 423.434967,350.053467 417.260284,353.276215 
	C403.417450,360.501282 389.913696,368.392151 376.416992,376.260834 
	C350.379242,391.440948 324.487335,406.871277 298.442749,422.039551 
	C286.480225,429.006470 274.058594,435.215515 262.351074,442.573212 
	C258.329987,445.100311 255.604416,445.304108 251.885712,443.110657 
	C237.730896,434.761597 223.787659,425.991669 209.220352,418.428711 
	C201.197083,414.263275 198.211334,409.054047 198.777054,400.223969 
	C199.664993,386.364929 199.747833,372.446198 199.872513,358.550079 
	C199.929581,352.188232 198.972214,345.818451 199.005081,339.454987 
	C199.076950,325.537933 199.444687,311.621521 199.795364,297.707458 
	C199.867752,294.835541 199.491776,292.329468 195.966721,293.869141 
	C191.864426,295.660980 188.044861,298.120239 184.162735,300.392639 
	C163.262527,312.626465 142.385284,324.899536 121.489769,337.141388 
	C116.859177,339.854248 112.186844,342.495850 106.803085,345.590210 
	C108.977020,347.284058 109.999397,348.296234 111.205650,348.987518 
	C124.621559,356.675842 138.009613,364.416626 151.549652,371.881195 
	C154.286011,373.389740 155.172760,375.024231 155.155441,378.032654 
	C155.048065,396.693817 155.050171,415.356934 155.261398,434.016632 
	C155.283478,435.967041 156.373138,438.787811 157.878464,439.697845 
	C168.858826,446.335846 180.089706,452.558136 191.208557,458.968781 
	C212.081177,471.002991 232.998077,482.963959 253.704819,495.277802 
	C256.214111,496.770050 257.664612,496.700378 259.780701,495.436035 
	C265.449188,492.049011 271.121918,488.665894 276.859802,485.398651 
	C290.740570,477.494598 304.721802,469.765289 318.547485,461.766693 
	C337.165710,450.995453 355.665619,440.019836 374.235657,429.165009 
	C390.264191,419.795776 406.328522,410.487823 422.360809,401.125000 
	C436.503296,392.865784 450.671265,384.647369 464.686371,376.176575 
	C466.256195,375.227814 467.704071,372.800812 467.815613,370.974243 
	C468.068970,366.825745 467.225586,362.622833 467.250366,358.444580 
	C467.282135,353.091064 467.958466,347.739319 467.941864,342.388092 
	C467.917999,334.695312 467.462982,327.004913 467.297638,319.311249 
	C467.138489,311.904694 467.113708,304.495270 467.553619,296.945984 
	C467.647858,296.637085 467.742096,296.328186 467.992462,295.091095 
	C467.940430,284.723633 467.888397,274.356140 467.930878,263.450562 
	C467.629120,263.272614 467.327332,263.094635 466.975494,262.050964 
	C466.992737,255.727112 467.009979,249.403259 467.553040,242.945709 
	C467.647491,242.636871 467.741943,242.328033 467.992493,241.091019 
	C467.940460,233.390228 467.888428,225.689453 467.930969,217.450653 
M261.238007,89.255417 
	C261.167664,102.620110 261.034454,115.984840 261.041595,129.349487 
	C261.052643,149.978851 261.120117,170.608429 261.260345,191.237259 
	C261.287567,195.244492 259.759003,195.728745 256.505341,194.078873 
	C251.174881,191.375870 245.755234,188.849411 240.402496,186.189514 
	C210.471024,171.315857 180.581253,156.357224 150.554779,141.678070 
	C148.360565,140.605377 146.007385,138.199997 142.637863,140.216248 
	C130.187500,147.666260 117.522163,154.757324 105.082497,162.224625 
	C103.340584,163.270294 101.549713,165.537567 101.274536,167.453766 
	C100.690994,171.517120 101.090248,175.721848 101.089684,179.868607 
	C101.087852,193.344910 101.070953,206.821228 101.089676,220.297501 
	C101.140747,257.063080 101.178703,293.828766 101.338768,330.593903 
	C101.348244,332.770813 102.387909,334.943268 102.948181,337.117798 
	C104.789787,336.315979 106.728119,335.681946 108.457222,334.684998 
	C119.197212,328.492767 129.927643,322.281799 140.575577,315.933350 
	C143.658493,314.095245 146.122192,312.254028 146.051926,307.499420 
	C145.670364,281.681488 145.854187,255.855164 145.852097,230.031723 
	C145.851151,218.202637 145.863754,206.373535 145.883499,194.544464 
	C145.891876,189.530396 146.676788,188.869003 151.279602,190.934021 
	C154.819077,192.521973 158.004135,194.884323 161.500931,196.585464 
	C183.155228,207.119980 204.880966,217.507767 226.524460,228.064255 
	C236.908066,233.128815 247.064621,238.670563 257.550018,243.506119 
	C260.014801,244.642792 263.977417,244.892319 266.254303,243.679306 
	C277.994019,237.425018 289.445526,230.623260 300.913391,223.869553 
	C303.905975,222.107162 306.262512,219.917374 305.876740,215.643066 
	C305.459991,211.025711 305.988037,206.328934 305.993134,201.666656 
	C306.017700,179.206421 306.023163,156.746140 305.996460,134.285904 
	C305.985413,124.961906 305.724060,115.635117 305.901642,106.315788 
	C305.959137,103.297440 304.611542,102.095764 302.275543,100.759605 
	C290.992615,94.305908 279.835876,87.632095 268.600586,81.094337 
	C266.384003,79.804512 264.018982,78.769791 261.238434,77.374565 
	C261.238434,81.712234 261.238434,85.016853 261.238007,89.255417 
z"/>
<path fill="#FDFDFC" opacity="1.000000" stroke="none" 
	d="
M467.836365,263.988678 
	C467.888397,274.356140 467.940430,284.723633 467.722595,295.684204 
	C467.228455,296.503693 467.087494,296.773621 467.029877,297.087097 
	C467.113708,304.495270 467.138489,311.904694 467.297638,319.311249 
	C467.462982,327.004913 467.917999,334.695312 467.941864,342.388092 
	C467.958466,347.739319 467.282135,353.091064 467.250366,358.444580 
	C467.225586,362.622833 468.068970,366.825745 467.815613,370.974243 
	C467.704071,372.800812 466.256195,375.227814 464.686371,376.176575 
	C450.671265,384.647369 436.503296,392.865784 422.360809,401.125000 
	C406.328522,410.487823 390.264191,419.795776 374.235657,429.165009 
	C355.665619,440.019836 337.165710,450.995453 318.547485,461.766693 
	C304.721802,469.765289 290.740570,477.494598 276.859802,485.398651 
	C271.121918,488.665894 265.449188,492.049011 259.780701,495.436035 
	C257.664612,496.700378 256.214111,496.770050 253.704819,495.277802 
	C232.998077,482.963959 212.081177,471.002991 191.208557,458.968781 
	C180.089706,452.558136 168.858826,446.335846 157.878464,439.697845 
	C156.373138,438.787811 155.283478,435.967041 155.261398,434.016632 
	C155.050171,415.356934 155.048065,396.693817 155.155441,378.032654 
	C155.172760,375.024231 154.286011,373.389740 151.549652,371.881195 
	C138.009613,364.416626 124.621559,356.675842 111.205650,348.987518 
	C109.999397,348.296234 108.977020,347.284058 106.803085,345.590210 
	C112.186844,342.495850 116.859177,339.854248 121.489769,337.141388 
	C142.385284,324.899536 163.262527,312.626465 184.162735,300.392639 
	C188.044861,298.120239 191.864426,295.660980 195.966721,293.869141 
	C199.491776,292.329468 199.867752,294.835541 199.795364,297.707458 
	C199.444687,311.621521 199.076950,325.537933 199.005081,339.454987 
	C198.972214,345.818451 199.929581,352.188232 199.872513,358.550079 
	C199.747833,372.446198 199.664993,386.364929 198.777054,400.223969 
	C198.211334,409.054047 201.197083,414.263275 209.220352,418.428711 
	C223.787659,425.991669 237.730896,434.761597 251.885712,443.110657 
	C255.604416,445.304108 258.329987,445.100311 262.351074,442.573212 
	C274.058594,435.215515 286.480225,429.006470 298.442749,422.039551 
	C324.487335,406.871277 350.379242,391.440948 376.416992,376.260834 
	C389.913696,368.392151 403.417450,360.501282 417.260284,353.276215 
	C423.434967,350.053467 423.645416,344.763763 423.766632,339.564911 
	C423.977692,330.515930 423.084991,321.447327 423.042145,312.385101 
	C422.929169,288.466278 423.031616,264.546478 423.033752,240.627045 
	C423.036102,214.326736 422.957825,188.026062 423.112366,161.726700 
	C423.128235,159.019669 422.549622,157.696915 420.151825,156.349915 
	C408.850739,150.001343 397.710449,143.367050 386.490936,136.872482 
	C381.075409,133.737640 375.533356,130.811356 370.232666,127.496292 
	C369.108185,126.793022 368.195587,124.814034 368.182770,123.413689 
	C368.039703,107.776985 368.092499,92.138496 368.092499,74.882141 
	C373.952301,78.165718 379.006897,80.928635 383.995178,83.806450 
	C398.543213,92.199409 413.062958,100.641350 427.597198,109.058220 
	C439.738312,116.089233 451.899017,123.086685 464.020264,130.151794 
	C468.417206,132.714661 466.828186,137.108963 466.957458,140.869568 
	C467.130920,145.916367 466.854828,150.978348 467.018768,156.025803 
	C467.205353,161.771210 467.996002,167.511078 467.938965,173.247528 
	C467.797272,187.495407 467.322815,201.739975 467.080811,216.667480 
	C467.326599,217.636139 467.545502,217.849335 467.836365,217.988663 
	C467.888428,225.689453 467.940460,233.390228 467.722900,241.682983 
	C467.228882,242.499435 467.086853,242.767578 467.027222,243.079407 
	C467.009979,249.403259 466.992737,255.727112 467.077393,262.702454 
	C467.327301,263.639069 467.546326,263.850647 467.836365,263.988678 
z"/>
<path fill="#FDFDFC" opacity="1.000000" stroke="none" 
	d="
M90.712433,286.972412 
	C90.740913,306.254669 90.818573,325.537109 90.751167,344.819031 
	C90.739464,348.168488 91.284775,350.329376 94.718971,352.248047 
	C110.854324,361.262665 126.762543,370.687744 142.637924,380.157288 
	C144.133545,381.049438 145.720535,383.250183 145.765350,384.884460 
	C146.170166,399.650543 146.260254,414.425659 146.357315,429.198669 
	C146.362915,430.053040 145.627899,430.912262 145.237579,431.769226 
	C144.436417,431.310577 143.640015,430.843353 142.833328,430.394623 
	C134.132370,425.554596 125.385017,420.795929 116.738922,415.859833 
	C105.818954,409.625641 94.992996,403.227020 84.104660,396.937103 
	C72.621895,390.303833 61.206539,383.543457 49.554821,377.219849 
	C46.388973,375.501678 46.045807,373.210205 46.042202,370.385162 
	C46.011402,346.236023 46.013435,322.086823 46.452660,297.359161 
	C47.260536,295.590363 47.934742,294.400604 47.936684,293.209717 
	C47.992813,258.804443 48.002357,224.398972 47.903469,189.993896 
	C47.899628,188.657593 46.751724,187.324554 46.136913,185.990005 
	C46.093128,181.304214 46.049343,176.618408 46.452744,171.356964 
	C47.262703,169.088638 47.924801,167.398605 47.939934,165.702820 
	C48.042484,154.210114 48.008396,142.716187 48.018471,131.222656 
	C55.503178,126.842766 62.982491,122.453636 70.473671,118.084854 
	C88.073395,107.820854 105.645058,97.508110 123.292053,87.325996 
	C138.738510,78.413589 154.320633,69.736069 169.755554,60.803970 
	C190.607224,48.737213 211.352066,36.485939 232.192139,24.398989 
	C239.412186,20.211472 246.709061,16.140167 254.136917,12.340426 
	C255.696671,11.542527 258.415466,11.420078 259.873230,12.255257 
	C277.483643,22.344788 294.903900,32.765484 312.483643,42.909439 
	C326.729401,51.129601 341.079590,59.172508 355.491669,67.097252 
	C358.236267,68.606415 358.965851,70.353371 358.944824,73.334412 
	C358.811951,92.158974 358.956757,110.985535 358.814301,129.809952 
	C358.792694,132.663116 359.710144,133.976273 362.178680,135.367386 
	C375.400543,142.818466 388.476807,150.528671 401.569672,158.206802 
	C403.126740,159.119919 404.478485,160.383179 405.925385,161.484146 
	C404.529266,162.619034 403.248688,163.948013 401.719147,164.858871 
	C386.079224,174.172729 370.443390,183.495071 354.715088,192.658340 
	C343.135345,199.404663 331.441406,205.956375 319.750122,212.508774 
	C316.795197,214.164841 314.505676,215.642212 314.831573,209.653000 
	C315.332764,200.441422 314.336456,191.155457 314.192474,181.897690 
	C314.144531,178.817596 315.075378,175.721146 315.016235,172.642593 
	C314.867249,164.886490 314.104797,157.134720 314.145905,149.384171 
	C314.209167,137.464218 314.780579,125.547707 315.051758,113.627808 
	C315.169098,108.470924 315.562988,103.240318 314.847839,98.182251 
	C314.544037,96.033821 312.077850,93.628105 309.975861,92.386810 
	C294.368622,83.170288 278.427429,74.508125 262.980621,65.036598 
	C256.902191,61.309467 252.640793,64.145142 247.966385,66.820412 
	C230.964828,76.550758 213.972107,86.298431 197.066269,96.193680 
	C177.518799,107.635117 158.124222,119.338280 138.552017,130.736801 
	C126.310730,137.865921 113.648438,144.296356 101.636536,151.780930 
	C97.857597,154.135574 91.754524,154.155273 90.612534,160.751572 
	C90.340210,161.595947 90.462074,161.841537 90.836456,161.988174 
	C90.892517,194.216782 90.952644,226.445374 91.001991,258.673981 
	C91.015480,267.479828 90.996643,276.285767 90.771698,285.634766 
	C90.324211,286.477936 90.378098,286.742798 90.712433,286.972412 
z"/>
<path fill="#FCFCFC" opacity="1.000000" stroke="none" 
	d="
M252.866302,344.121338 
	C252.568481,352.202087 252.098755,360.281281 252.025986,368.364075 
	C251.965271,375.108795 252.495468,381.856903 252.541458,388.605011 
	C252.632004,401.892914 252.568130,415.181854 252.568130,429.685150 
	C247.959244,427.286011 243.722824,425.184662 239.584427,422.905304 
	C230.432434,417.864410 221.335556,412.723541 212.203949,407.645477 
	C208.841415,405.775665 207.919220,402.946198 207.930023,399.178619 
	C208.037354,361.756317 207.995056,324.333618 207.995056,286.867279 
	C220.313049,279.838898 232.511490,272.887817 244.701187,265.921539 
	C265.629456,253.961212 286.588654,242.054474 307.467621,230.008682 
	C330.657867,216.629425 353.773926,203.121552 376.920105,189.665894 
	C387.363281,183.594925 397.790070,177.495560 408.260162,171.471451 
	C409.210266,170.924805 410.423431,170.835373 411.514404,170.533600 
	C411.692902,171.793228 411.966766,173.048584 412.023590,174.313690 
	C412.082977,175.636246 411.882782,176.968185 411.882721,178.296021 
	C411.880219,231.780777 411.842194,285.265656 411.993744,338.750000 
	C412.004059,342.393494 410.749847,344.222473 407.774170,345.968475 
	C396.378082,352.655060 385.157227,359.639740 373.802490,366.398163 
	C372.323669,367.278381 370.446350,367.489227 367.932434,368.262848 
	C367.932434,352.289825 367.932434,336.806580 367.932434,319.825928 
	C332.222351,340.364777 297.169952,360.525330 262.018127,380.743073 
	C262.018127,366.570923 262.060028,353.412292 261.977570,340.254486 
	C261.963593,338.022736 260.666016,335.545715 261.302551,333.626923 
	C262.109833,331.193420 263.815704,328.407257 265.945892,327.162354 
	C292.435150,311.681824 319.067627,296.446167 345.675262,281.168457 
	C349.961060,278.707611 354.189789,276.104370 358.647644,273.995575 
	C366.808289,270.135132 369.352570,263.690735 368.101105,255.200165 
	C367.724335,252.643677 367.461884,250.070328 367.043823,246.663513 
	C329.136322,268.465668 291.422150,290.156616 253.090942,312.011169 
	C252.576660,312.775482 252.679443,313.376129 252.782211,313.976807 
	C252.770645,319.985229 252.759094,325.993652 252.420746,332.769562 
	C252.351410,337.065155 252.608856,340.593231 252.866302,344.121338 
z"/>
<path fill="#FCFBFB" opacity="1.000000" stroke="none" 
	d="
M261.238220,88.788445 
	C261.238434,85.016853 261.238434,81.712234 261.238434,77.374565 
	C264.018982,78.769791 266.384003,79.804512 268.600586,81.094337 
	C279.835876,87.632095 290.992615,94.305908 302.275543,100.759605 
	C304.611542,102.095764 305.959137,103.297440 305.901642,106.315788 
	C305.724060,115.635117 305.985413,124.961906 305.996460,134.285904 
	C306.023163,156.746140 306.017700,179.206421 305.993134,201.666656 
	C305.988037,206.328934 305.459991,211.025711 305.876740,215.643066 
	C306.262512,219.917374 303.905975,222.107162 300.913391,223.869553 
	C289.445526,230.623260 277.994019,237.425018 266.254303,243.679306 
	C263.977417,244.892319 260.014801,244.642792 257.550018,243.506119 
	C247.064621,238.670563 236.908066,233.128815 226.524460,228.064255 
	C204.880966,217.507767 183.155228,207.119980 161.500931,196.585464 
	C158.004135,194.884323 154.819077,192.521973 151.279602,190.934021 
	C146.676788,188.869003 145.891876,189.530396 145.883499,194.544464 
	C145.863754,206.373535 145.851151,218.202637 145.852097,230.031723 
	C145.854187,255.855164 145.670364,281.681488 146.051926,307.499420 
	C146.122192,312.254028 143.658493,314.095245 140.575577,315.933350 
	C129.927643,322.281799 119.197212,328.492767 108.457222,334.684998 
	C106.728119,335.681946 104.789787,336.315979 102.948181,337.117798 
	C102.387909,334.943268 101.348244,332.770813 101.338768,330.593903 
	C101.178703,293.828766 101.140747,257.063080 101.089676,220.297501 
	C101.070953,206.821228 101.087852,193.344910 101.089684,179.868607 
	C101.090248,175.721848 100.690994,171.517120 101.274536,167.453766 
	C101.549713,165.537567 103.340584,163.270294 105.082497,162.224625 
	C117.522163,154.757324 130.187500,147.666260 142.637863,140.216248 
	C146.007385,138.199997 148.360565,140.605377 150.554779,141.678070 
	C180.581253,156.357224 210.471024,171.315857 240.402496,186.189514 
	C245.755234,188.849411 251.174881,191.375870 256.505341,194.078873 
	C259.759003,195.728745 261.287567,195.244492 261.260345,191.237259 
	C261.120117,170.608429 261.052643,149.978851 261.041595,129.349487 
	C261.034454,115.984840 261.167664,102.620110 261.238220,88.788445 
z"/>
<path fill="#F0E8E8" opacity="1.000000" stroke="none" 
	d="
M46.055294,186.435471 
	C46.751724,187.324554 47.899628,188.657593 47.903469,189.993896 
	C48.002357,224.398972 47.992813,258.804443 47.936684,293.209717 
	C47.934742,294.400604 47.260536,295.590363 46.518360,296.895203 
	C46.082592,294.293945 46.028133,291.578156 46.329296,288.107666 
	C46.540344,281.916351 46.395771,276.479767 46.251202,271.043152 
	C46.232883,269.298309 46.214561,267.553436 46.468742,265.046753 
	C46.540810,255.864258 46.340374,247.443649 46.139938,239.023026 
	C46.084599,235.308823 46.029255,231.594604 46.308250,227.174103 
	C46.513069,224.660507 46.383556,222.853226 46.254040,221.045929 
	C46.231327,216.988937 46.208618,212.931961 46.461433,208.085556 
	C46.537945,203.205093 46.338932,199.114059 46.139919,195.023010 
	C46.084503,192.308990 46.029091,189.594955 46.055294,186.435471 
z"/>
<path fill="#F0E8E8" opacity="1.000000" stroke="none" 
	d="
M47.616066,131.243225 
	C48.008396,142.716187 48.042484,154.210114 47.939934,165.702820 
	C47.924801,167.398605 47.262703,169.088638 46.518417,170.895569 
	C46.082588,169.281158 46.028267,167.552505 46.206047,165.327637 
	C46.666389,164.535019 46.605412,164.271851 46.255211,164.041901 
	C46.219826,154.341431 46.146378,144.640778 46.196720,134.940750 
	C46.203091,133.713379 46.858799,132.489365 47.616066,131.243225 
z"/>
<path fill="#FFFFFF" opacity="1.000000" stroke="none" 
	d="
M46.074913,239.486298 
	C46.340374,247.443649 46.540810,255.864258 46.495216,264.611237 
	C46.169418,256.608246 46.089657,248.278900 46.074913,239.486298 
z"/>
<path fill="#FDFDFC" opacity="1.000000" stroke="none" 
	d="
M46.132473,271.494507 
	C46.395771,276.479767 46.540344,281.916351 46.410881,287.661255 
	C46.095814,282.628296 46.054779,277.287048 46.132473,271.494507 
z"/>
<path fill="#FFFFFF" opacity="1.000000" stroke="none" 
	d="
M46.074947,195.480469 
	C46.338932,199.114059 46.537945,203.205093 46.493080,207.616959 
	C46.169464,203.937820 46.089722,199.937866 46.074947,195.480469 
z"/>
<path fill="#D0A0BF" opacity="1.000000" stroke="none" 
	d="
M252.956635,343.657837 
	C252.608856,340.593231 252.351410,337.065155 252.370529,333.230621 
	C252.780380,336.347565 252.913666,339.770966 252.956635,343.657837 
z"/>
<path fill="#FFFFFF" opacity="1.000000" stroke="none" 
	d="
M46.136253,221.455231 
	C46.383556,222.853226 46.513069,224.660507 46.391262,226.717316 
	C46.099445,225.266083 46.058956,223.565308 46.136253,221.455231 
z"/>
<path fill="#D0A0BF" opacity="1.000000" stroke="none" 
	d="
M252.890656,313.663269 
	C252.679443,313.376129 252.576660,312.775482 252.736450,312.097839 
	C252.999054,312.463837 252.999084,312.906799 252.890656,313.663269 
z"/>
<path fill="#FFFFFF" opacity="1.000000" stroke="none" 
	d="
M467.883667,217.719666 
	C467.545502,217.849335 467.326599,217.636139 467.103821,217.129242 
	C467.329010,217.089798 467.629974,217.270218 467.883667,217.719666 
z"/>
<path fill="#FFFFFF" opacity="1.000000" stroke="none" 
	d="
M46.142799,164.264313 
	C46.605412,164.271851 46.666389,164.535019 46.289032,164.902206 
	C46.139919,164.972977 46.030384,164.486740 46.142799,164.264313 
z"/>
<path fill="#FFFFFF" opacity="1.000000" stroke="none" 
	d="
M467.290131,243.012558 
	C467.086853,242.767578 467.228882,242.499435 467.644836,242.147079 
	C467.741943,242.328033 467.647491,242.636871 467.290131,243.012558 
z"/>
<path fill="#FFFFFF" opacity="1.000000" stroke="none" 
	d="
M467.883606,263.719604 
	C467.546326,263.850647 467.327301,263.639069 467.102417,263.135315 
	C467.327332,263.094635 467.629120,263.272614 467.883606,263.719604 
z"/>
<path fill="#FFFFFF" opacity="1.000000" stroke="none" 
	d="
M90.901314,161.738663 
	C90.462074,161.841537 90.340210,161.595947 90.593323,161.144897 
	C90.799248,161.188660 90.882713,161.338898 90.901314,161.738663 
z"/>
<path fill="#FFFFFF" opacity="1.000000" stroke="none" 
	d="
M90.838394,286.746643 
	C90.378098,286.742798 90.324211,286.477936 90.693604,286.098938 
	C90.879089,286.186951 90.921730,286.353943 90.838394,286.746643 
z"/>
<path fill="#FFFFFF" opacity="1.000000" stroke="none" 
	d="
M467.291748,297.016541 
	C467.087494,296.773621 467.228455,296.503693 467.644531,296.148315 
	C467.742096,296.328186 467.647858,296.637085 467.291748,297.016541 
z"/>
</svg>